<svg width="38" height="36" viewBox="0 0 38 36" fill="none" xmlns="http://www.w3.org/2000/svg">
<path d="M24.0172 17.9824H13.8189C12.6467 16.836 11.9434 15.2913 11.9434 13.6017C11.9434 9.57088 15.9289 6.40931 20.4483 7.30252C23.1053 7.82145 25.2284 9.84884 25.7494 12.3227C26.2053 14.507 25.4629 16.5466 24.0172 17.9824Z" fill="#E0E0E0"/>
<path d="M22.3744 20.3945V22.615C22.3744 23.327 21.7622 23.9063 20.9938 23.9063H16.839C16.0705 23.9063 15.4453 23.327 15.4453 22.615V20.3945H22.3744Z" fill="#E0E0E0"/>
<path d="M18.9099 3.87374C19.6295 3.87374 20.2123 3.33372 20.2123 2.66696V1.20678C20.2123 0.540019 19.6295 0 18.9099 0C18.1903 0 17.6074 0.540019 17.6074 1.20678V2.66696C17.6074 3.33372 18.1903 3.87374 18.9099 3.87374Z" fill="#E0E0E0"/>
<path d="M10.9312 5.461C11.1868 5.78532 11.5824 5.95881 11.9862 5.95881C12.2516 5.95881 12.5185 5.88339 12.7514 5.72801C13.3342 5.33582 13.4628 4.58156 13.0395 4.04154L12.1115 2.8604C11.6899 2.32339 10.8758 2.20121 10.2913 2.5934C9.71175 2.98559 9.5815 3.73986 10.0048 4.27988L10.9312 5.461Z" fill="#E0E0E0"/>
<path d="M5.80283 10.9071L7.3023 11.3581C7.4358 11.3973 7.57256 11.417 7.70443 11.417C8.25472 11.417 8.76269 11.0926 8.94341 10.5828C9.16483 9.9492 8.79037 9.26889 8.10659 9.06221L6.60712 8.61116C5.92334 8.40752 5.18909 8.75296 4.96602 9.38651C4.74461 10.0201 5.11905 10.7004 5.80283 10.9071Z" fill="#E0E0E0"/>
<path d="M29.7149 18.1055L31.2144 18.5565C31.3479 18.5958 31.4847 18.6154 31.6165 18.6154C32.1668 18.6154 32.6748 18.291 32.8555 17.7812C33.0769 17.1476 32.7025 16.4673 32.0187 16.2606L30.5192 15.8096C29.8338 15.6029 29.1012 15.9514 28.8781 16.5849C28.6567 17.2185 29.0312 17.8988 29.7149 18.1055Z" fill="#E0E0E0"/>
<path d="M6.20499 18.6166C6.33849 18.6166 6.47525 18.597 6.60713 18.5578L8.1066 18.1067C8.79038 17.9001 9.16486 17.2197 8.94342 16.5862C8.72037 15.9541 7.98936 15.6057 7.30233 15.8108L5.80285 16.2619C5.11907 16.4685 4.74459 17.1489 4.96603 17.7824C5.14675 18.2908 5.65467 18.6166 6.20499 18.6166Z" fill="#E0E0E0"/>
<path d="M30.1171 11.4193C30.2506 11.4193 30.3874 11.3997 30.5192 11.3605L32.0187 10.9094C32.7025 10.7028 33.077 10.0225 32.8555 9.38891C32.6325 8.75687 31.9015 8.40839 31.2144 8.61356L29.715 9.0631C29.0312 9.26976 28.6567 9.95009 28.8781 10.5836C29.0589 11.0935 29.5684 11.4193 30.1171 11.4193Z" fill="#E0E0E0"/>
<path d="M25.8359 5.95818C26.2396 5.95818 26.6353 5.78621 26.8909 5.46037L27.8172 4.27923C28.2405 3.73921 28.1119 2.98494 27.5291 2.59275C26.9462 2.20206 26.1322 2.32273 25.7089 2.85975L24.7825 4.0424C24.3592 4.58241 24.4878 5.33668 25.0707 5.72887C25.3035 5.88424 25.5705 5.95818 25.8359 5.95818Z" fill="#E0E0E0"/>
<path d="M18.9338 36H2.02526C1.23002 36 0.585938 35.3708 0.585938 34.594V29.406C0.585938 28.6292 1.23002 28 2.02526 28H10.7441C15.2672 28 18.9338 31.5818 18.9338 36Z" fill="#E0E0E0"/>
<path d="M18.9336 36H35.8421C36.6373 36 37.2814 35.3708 37.2814 34.594V29.406C37.2814 28.6292 36.6373 28 35.8421 28H27.1232C22.6002 28 18.9336 31.5818 18.9336 36Z" fill="#E0E0E0"/>
</svg>
